<?xml version="1.0" encoding="UTF-8"?>
<svg xmlns="http://www.w3.org/2000/svg" version="1.1" xmlns:xlink="http://www.w3.org/1999/xlink" viewBox="0 0 1836 1800">
  <!-- Generator: Adobe Illustrator 29.1.0, SVG Export Plug-In . SVG Version: 2.1.0 Build 142)  -->
  <defs>
    <style>
      .st0, .st1 {
        fill: #fff;
      }

      .st1 {
        stroke: #000;
        stroke-miterlimit: 10;
      }

      .st2 {
        fill: #fa7d03;
      }

      .st3 {
        fill: #ff8508;
      }

      .st3, .st4, .st5 {
        isolation: isolate;
      }

      .st5 {
        fill: #6cba00;
      }

      .st6 {
        display: none;
      }
    </style>
    <image id="image" width="1029" height="562" xlink:href="logo-1.png"/>
  </defs>
  <g id="Capa_1">
    <g id="Capa_11" data-name="Capa_1" class="st6">
      <use class="st4" transform="translate(-210.3 283.8) scale(2.2)" xlink:href="#image"/>
    </g>
    <g id="Capa_2" class="st6">
      <path class="st1" d="M568.4,649.5c-.5-2.5-.8-5.1-1.1-7.6-.3-2.8-.4-5.6-.4-8.5v-.4c0-2.1,0-4.1.2-6.2,0,2.2,0,4.4.2,6.5,0,.9,0,1.9,0,2.8.2,4.5.5,8.9,1,13.3h0Z"/>
      <path class="st1" d="M568.4,649.5c-.5-2.5-.8-5.1-1.1-7.6,0-1.9,0-3.8,0-5.7.2,4.5.5,8.9,1,13.3Z"/>
      <path class="st1" d="M939.9,877.8c-.3,12.4-1.1,24.7-2.4,37h0c-.6,5.9-1.4,11.8-2.2,17.6-1.5,10.4-3.5,20.9-6,31.2-2.2,9.2-4.9,18.3-8.2,27.1-5.6,15.1-13,29.5-22.7,42.4-1.5-8.3-3.4-16.6-5.8-24.7-2.5-8.5-5.5-16.8-9-24.9-3.8-8.8-8.2-17.4-13.1-25.7,2-15.3,3.1-30.8,3.4-46.2.2-10.9,0-21.8-.5-32.7-.3-5.2-.6-10.4-1.1-15.6-6.3-74.7-31.1-147.9-72.9-209.7-12.5-18.6-26.6-36.2-42.2-52.5-28.4-29.7-65.7-56.4-106.1-55.2,7.1-9.3,16.3-17.1,26.5-22.8,9.7-5.4,20.5-9,31.5-10.3,11.4-1.3,22.5-.4,33.4,2.3,10.1,2.5,19.9,6.5,29.4,11.7,9.4,22.4,21.4,43.4,35.6,62.7,11.7,10.9,22.4,22.9,32,35.8.9,1.2,1.7,2.3,2.6,3.5,8.4,11.7,15.8,24.1,22.2,37.1.8-5.2,1.8-10.4,2.8-15.5,1.4-6.8,3.1-13.6,5-20.2,7.9,12.4,15.1,25.3,21.6,38.5h0c9.6,19.4,17.7,39.5,24.3,60.1h0c1,3,1.9,5.9,2.8,8.9h0c9,29.9,14.8,60.8,17.5,92,.9,10.5,1.4,21,1.6,31.6v16.7-.2Z"/>
      <path class="st1" d="M1200.1,560.8c0,45.6-10,88.8-28,127.5-8.8,18.9-19.4,36.7-31.6,53.2-1.3,1.8-2.7,3.5-4,5.3.7-.2,1.3-.4,2-.6-31.3,69.3-79.7,129.2-139.8,174.5-1,.7-1.9,1.5-2.9,2.2.2.2.4.4.5.6-7.5,8.7-15.3,17.1-23.5,25.1-15.9,15.5-33.2,29.7-51.6,42.2,3.3-8.8,6-17.9,8.2-27.1,2.5-10.3,4.4-20.8,6-31.2.9-5.9,1.6-11.7,2.2-17.6h0c1.3-12.3,2.1-24.6,2.4-37,0-5.6,0-11.2,0-16.7-.2-10.6-.7-21.1-1.6-31.6-2.6-31.2-8.5-62.1-17.5-92h0c-.9-3-1.8-6-2.8-8.9h0c0-2.9,0-5.7,0-8.6,0-12.5.8-24.9,2.2-37,9.9-81.7,52.4-153.4,114-201.8.4.6.7,1.2,1.1,1.8,1.7-2.3,3.4-4.6,5.3-6.7h0c14.8-11,30.6-20.7,47.4-28.9,6.8-1.6,14-2.5,21.3-2.5,22.5,0,43.1,8.2,59,21.8,12.2,10.4,21.6,24,26.9,39.5h0c2.3,12.5,3.8,25.3,4.5,38.3h0c.3,5.4.4,10.8.4,16.2h0Z"/>
      <path class="st1" d="M998.6,920.6c-.8.9-1.5,1.8-2.3,2.8-.2-.2-.4-.4-.5-.6,1-.7,1.9-1.4,2.9-2.2h-.1Z"/>
      <path class="st1" d="M1034.3,481.2h0c-61.6,48.4-104.1,120.1-114,201.8-1.5,12.1-2.2,24.5-2.2,37s0,5.7,0,8.6h0c1,3,1.9,5.9,2.8,8.9h0c9,29.9,14.8,60.8,17.5,92,.9,10.5,1.4,21,1.6,31.6v16.7c-.3,12.4-1.1,24.7-2.4,37h0c-.6,5.9-1.4,11.8-2.2,17.6-1.5,10.4-3.5,20.9-6,31.2-2.2,9.2-4.9,18.3-8.2,27.1-9.2,6.3-18.7,12.2-28.5,17.7-12.4,7-25.3,13.2-38.5,18.8,4.7-12.1,8.2-24.6,11-37.4,1.7-7.9,3.1-15.8,4.2-23.7.4-2.8.8-5.6,1.2-8.4,2-15.3,3.1-30.8,3.4-46.2.2-10.9,0-21.8-.5-32.7-.3-5.2-.6-10.4-1.1-15.6-6.3-74.7-31.1-147.9-72.9-209.7-12.5-18.6-26.6-36.2-42.2-52.5-28.4-29.7-65.7-56.4-106.1-55.2-2.6,0-5.2.3-7.9.6-18.6,2.2-36.4,10.9-49.8,23.9-4.2,4.1-8,8.6-11.2,13.4-5.9,8.8-9.8,18.7-12,29-1.6,7.6-2.5,15.4-2.8,23.4.2,4.5.5,8.9,1,13.3-.5-2.5-.8-5.1-1.1-7.6,0,20.2,3.6,41.3,9.4,61.6,6.1,21.2,14.5,41.4,23.6,58.8,24.3,46.5,60.1,86.2,99.1,121,32.5,29,67.9,55.6,93.6,90.8,2.2,3,4.4,6.1,6.4,9.3,4.3,6.5,8.2,13.2,11.8,20.2,5.7,11.1,10.5,22.6,14.2,34.5-37.3,12.2-77.2,18.8-118.7,18.8s-58.1-3.3-85.6-9.7c-105.5-24.2-194.3-92.3-246.2-184-11.1-19.7-20.6-40.4-28.1-62.1-13.6-39.2-21.1-81.3-21.1-125.2s4.7-68.9,13.6-101.1c44.3-161.3,192-279.9,367.4-279.9s26.9.7,40.1,2.1c7.5.8,14.9,1.8,22.2,3,4,.7,8,1.4,11.9,2.2-12.2,20.2-22.1,41.9-29.4,64.8-2,14-3,28.2-3,42.7,0,41.5,8.3,81,23.4,117,9.4,22.4,21.4,43.4,35.6,62.7,11.7,10.9,22.4,22.9,32,35.8.9,1.2,1.7,2.3,2.6,3.5,8.4,11.7,15.8,24.1,22.2,37.1.8-5.2,1.8-10.4,2.8-15.5,1.4-6.8,3.1-13.6,5-20.2,7.8-27.5,19.4-53.4,34.2-77.1h0c2.9-4.7,5.9-9.2,9-13.6h0c26.5-42.1,44.4-90.3,51.3-141.9,17.1,16,32.7,33.5,46.7,52.4,7.5,10.1,14.5,20.7,21,31.5h-.2Z"/>
      <path class="st1" d="M938.4,829.5c-11.3-29.1-18.2-60.4-19.9-93.1,0-2.6-.2-5.2-.3-7.8,1,2.9,1.9,5.9,2.8,8.9h0c9,29.9,14.8,60.8,17.5,92h0Z"/>
      <path class="st1" d="M1040.7,476.3c-1.9,2.2-3.6,4.4-5.3,6.7-.4-.6-.7-1.2-1.1-1.8h0c2.1-1.7,4.2-3.3,6.4-4.9h0Z"/>
      <path class="st1" d="M1524.8,720c0,167.5-135.8,303.4-303.4,303.4s-44.5-2.5-65.7-7.1c-62.6-13.8-118-47-159.5-92.9-.2-.2-.4-.4-.5-.6,1-.7,1.9-1.4,2.9-2.2,60.1-45.2,108.4-105.2,139.8-174.5-.7.2-1.3.4-2,.6,1.4-1.7,2.7-3.5,4-5.3,12.3-16.5,22.9-34.3,31.6-53.2,18-38.8,28-82,28-127.5s0-10.9-.4-16.2h0c-.7-13-2.2-25.8-4.5-38.3h0c-5.3-15.5-14.7-29.1-26.9-39.5-15.9-13.6-36.5-21.8-59-21.8s-14.5.9-21.3,2.5c21.6-10.6,44.7-18.7,68.8-23.9,3.1-.7,6.3-1.3,9.5-1.9,17.9-3.3,36.3-5,55.1-5s5.6,0,8.3.1c40.5,1.1,79,10.1,114,25.6,3.2,1.4,6.3,2.8,9.4,4.3,101.6,49,171.7,153,171.7,273.4h0Z"/>
      <path class="st1" d="M1195.2,506.2c-5.3-15.5-14.7-29.1-26.9-39.5-15.9-13.6-36.5-21.8-59-21.8s-14.5.9-21.3,2.5c-16.7,8.2-32.6,17.9-47.4,28.9h0c-1.9,2.2-3.6,4.4-5.3,6.7-.4-.6-.7-1.2-1.1-1.8-61.6,48.4-104.1,120.1-114,201.8-1.5,12.1-2.2,24.5-2.2,37s0,5.7,0,8.6h0c1,3,1.9,5.9,2.8,8.9h0c9,29.9,14.8,60.8,17.5,92,.9,10.5,1.4,21,1.6,31.6-12.8,1.8-25.8,2.8-39,3h-4.3c-6,0-11.9-.2-17.8-.5-2.2,0-4.3-.3-6.5-.4-6.3-74.7-31.1-147.9-72.9-209.7-12.5-18.6-26.6-36.2-42.2-52.5-28.4-29.7-65.7-56.4-106.1-55.2-2.6,0-5.2.3-7.9.6-18.6,2.2-36.4,10.9-49.8,23.9,0-3.2-.2-6.3-.2-9.5,0-13.9.9-27.5,2.7-40.8,12.9-95.7,70.3-177.2,150.8-223,9.6-5.5,19.6-10.4,29.8-14.9,8-3.4,16.1-6.6,24.5-9.3-7.3,9.3-14,19.1-20.1,29.3-12.2,20.2-22.1,41.9-29.4,64.8-2,14-3,28.2-3,42.7,0,41.5,8.3,81,23.4,117,9.4,22.4,21.4,43.4,35.6,62.7,11.7,10.9,22.4,22.9,32,35.8.9,1.2,1.7,2.3,2.6,3.5,8.4,11.7,15.8,24.1,22.2,37.1.8-5.2,1.8-10.4,2.8-15.5,1.4-6.8,3.1-13.6,5-20.2,7.8-27.5,19.4-53.4,34.2-77.1h0c2.9-4.7,5.9-9.2,9-13.6h0c26.5-42.1,44.4-90.3,51.3-141.9,2-15.4,3.1-31.1,3.1-47s0-5.6,0-8.3h0c0-6.1-.4-12.2-.9-18.1h0c-3.8-26.8-18.7-49.9-39.9-64.7,10.2,1.1,20.3,2.7,30.2,4.7,73.9,15.5,137.9,57.8,181.3,116.3,7,9.4,13.5,19.3,19.4,29.5,2.3,3.9,4.4,7.9,6.5,12,13.6,26.2,23.4,54.6,28.8,84.6v-.2Z"/>
      <path class="st1" d="M1088,447.4c-16.7,8.2-32.6,17.9-47.4,28.9,12.2-14.1,28.6-24.4,47.4-28.9Z"/>
      <path class="st1" d="M1200.1,535.7c0,3,0,5.9-.4,8.8-.7-13-2.2-25.8-4.5-38.3,3.2,9.2,4.9,19.2,4.9,29.5Z"/>
      <path class="st1" d="M1156.8,423.5c-1.5-4.6-3-9.1-4.6-13.7-3.6-10.1-7.5-20-11.8-29.7-39.1-89.1-106.2-163.2-190.2-211-14.3-8.2-29.1-15.5-44.4-22.1-1.1-.5-2.3-1-3.4-1.5-53.7-22.6-112.7-35.1-174.6-35.1-221.6,0-405.9,160.1-443.4,371-4.6,25.8-7,52.2-7,79.3,0,88.3,25.4,170.7,69.4,240.2,6.2,9.9,12.9,19.5,19.8,28.8,82.1,110,213.3,181.3,361.1,181.3s23.3-.5,34.8-1.3c16.4-1.3,32.6-3.4,48.5-6.4-3.6-6.9-7.5-13.7-11.8-20.2-2-3.1-4.2-6.2-6.4-9.3-25.7-35.1-61.1-61.8-93.6-90.8-39-34.7-74.8-74.5-99.1-121-9.1-17.4-17.5-37.6-23.6-58.8-5.8-20.3-9.4-41.4-9.4-61.6.3,2.6.6,5.1,1.1,7.6-.4-4.4-.8-8.9-1-13.3.3-8,1.2-15.8,2.8-23.4,2.2-10.3,6.1-20.2,12-29,3.3-4.8,7-9.3,11.2-13.4,13.5-13.1,31.2-21.7,49.8-23.9,2.7-.3,5.3-.5,7.9-.6,40.4-1.1,77.8,25.5,106.1,55.2,15.6,16.3,29.7,33.9,42.2,52.5,41.7,61.8,66.5,135,72.9,209.7.5,5.2.8,10.4,1.1,15.6.6,10.9.7,21.8.5,32.7-.3,15.4-1.5,30.9-3.4,46.2-.4,2.8-.7,5.6-1.2,8.4-1.2,7.9-2.5,15.8-4.2,23.7,6.2-2,12.4-4.1,18.5-6.4,15.7-5.8,31-12.4,45.8-19.8,2.5-10.3,4.4-20.8,6-31.2.9-5.9,1.6-11.7,2.2-17.6h0c1.3-12.3,2.1-24.6,2.4-37,0-5.6,0-11.2,0-16.7-.2-10.6-.7-21.1-1.6-31.6-2.6-31.2-8.5-62.1-17.5-92h0c-.9-3-1.8-6-2.8-8.9h0c0-2.9,0-5.7,0-8.6,0-12.5.8-24.9,2.2-37,9.9-81.7,52.4-153.4,114-201.8.4.6.7,1.2,1.1,1.8,1.7-2.3,3.4-4.6,5.3-6.7h0c14.8-11,30.6-20.7,47.4-28.9,6.8-1.6,14-2.5,21.3-2.5,22.5,0,43.1,8.2,59,21.8-3.1-14.7-6.9-29.1-11.5-43.2l.2.2ZM906.4,552.7h0c-14.8,23.8-26.4,49.7-34.2,77.2-1.9,6.7-3.5,13.4-5,20.2-1.1,5.1-2,10.3-2.8,15.5-6.4-13-13.9-25.4-22.2-37.1-.8-1.2-1.7-2.4-2.6-3.5-9.6-12.9-20.3-24.9-32-35.8-14.2-19.3-26.2-40.3-35.6-62.7-15.1-36-23.4-75.5-23.4-117s1-28.8,3-42.7c7.3-22.9,17.2-44.6,29.4-64.8,6.2-10.2,12.9-20,20.1-29.3h0c1.2-.4,2.4-.8,3.6-1.2,17.4-18.3,42-29.8,69.3-29.8s39.3,6.4,54.8,17.3c21.1,14.8,36,37.9,39.9,64.7h0c.5,6,.7,12.1.9,18.2h0v8.4c0,15.9-1,31.6-3.1,47-6.8,51.6-24.7,99.7-51.3,141.9h0c-3.1,4.4-6.1,8.9-9,13.5h.2Z"/>
      <path class="st1" d="M1140.4,741.5c-.7,1.6-1.4,3.1-2.1,4.6-.7.2-1.3.4-2,.6,1.4-1.7,2.7-3.5,4-5.3h0Z"/>
      <path class="st1" d="M969.7,337.5v4.4c0-6.1-.4-12.1-.9-18.1.7,4.5,1,9,1,13.7h0Z"/>
      <path class="st1" d="M891.5,782.6c0,18-1.8,35.5-5.2,52.5-1.9,9.7-4.4,19.2-7.4,28.5-1.6,5.1-3.4,10.2-5.4,15.2-.3-5.2-.6-10.4-1.1-15.6-6.3-74.7-31.1-147.9-72.9-209.7-12.5-18.6-26.6-36.2-42.2-52.5-28.4-29.7-65.7-56.4-106.1-55.2-2.6,0-5.2.3-7.9.6-18.6,2.2-36.4,10.9-49.8,23.9-4.2,4.1-8,8.6-11.2,13.4-5.9,8.8-9.8,18.7-12,29-1.6,7.6-2.5,15.4-2.8,23.4.2,4.5.5,8.9,1,13.3-.5-2.5-.8-5.1-1.1-7.6,0,20.2,3.6,41.3,9.4,61.6,6.1,21.2,14.5,41.4,23.6,58.8,24.3,46.5,60.1,86.2,99.1,121,32.5,29,67.9,55.6,93.6,90.8,2.2,3,4.4,6.1,6.4,9.3-11.4,9.9-23.8,18.7-36.8,26.5-39.7,23.7-86,37.4-135.6,37.4s-3.9,0-5.8,0c-115.5-2.5-212.7-79-246.2-184-3.5-10.8-6.2-21.9-8.3-33.2-2.8-15.3-4.2-31.1-4.2-47.2,0-53.6,15.9-103.4,43.3-145.1,41.9-63.8,110.7-108.4,190.2-117.7,10.2-1.2,20.5-1.8,31-1.8,17.3,0,34.3,1.7,50.7,4.9,26,5.1,50.7,13.9,73.3,26h0c20.6,10.9,39.6,24.5,56.5,40.3,11.7,10.9,22.4,22.9,32,35.8.9,1.2,1.7,2.3,2.6,3.5,8.4,11.7,15.8,24.1,22.2,37.1,8.2,16.6,14.7,34.2,19.3,52.6h0c5.2,20.6,7.9,42.2,7.9,64.3h0Z"/>
      <path class="st1" d="M1467.5,713c0,167.6-135.8,303.4-303.4,303.4s-5.6,0-8.3,0c-69.3-1.9-132.8-27-183-67.8,8.2-8,16-16.4,23.5-25.1-.2-.2-.4-.4-.5-.6,1-.7,1.9-1.4,2.9-2.2,60.1-45.2,108.4-105.2,139.8-174.5-.7.2-1.3.4-2,.6,1.4-1.7,2.7-3.5,4-5.3,12.3-16.5,22.9-34.3,31.6-53.2,18-38.8,28-82,28-127.5s0-10.9-.4-16.2h0c-.7-13-2.2-25.8-4.5-38.3h0c-5.3-15.5-14.7-29.1-26.9-39.5-15.9-13.6-36.5-21.8-59-21.8s-14.5.9-21.3,2.5c-16.7,8.2-32.6,17.9-47.4,28.9h0c-1.9,2.2-3.6,4.4-5.3,6.7-.4-.6-.7-1.2-1.1-1.8-61.6,48.4-104.1,120.1-114,201.8-1.5,12.1-2.2,24.5-2.2,37s0,5.7,0,8.6h0c1,3,1.9,5.9,2.8,8.9h0c9,29.9,14.8,60.8,17.5,92,.9,10.5,1.4,21,1.6,31.6v16.7c-.3,12.4-1.1,24.7-2.4,37-13.9-15.5-26.1-32.5-36.6-50.7-5.4-9.3-10.3-19-14.7-29-16.5-37.4-25.6-78.7-25.6-122.2s0-6.6.2-10c.4-12.6,1.6-25.1,3.5-37.3.8-5.2,1.8-10.4,2.8-15.5,1.4-6.8,3.1-13.6,5-20.2,7.8-27.5,19.4-53.4,34.2-77.1h0c2.9-4.7,5.9-9.2,9-13.6h0c25.6-36.6,59.1-67.2,97.9-89.5,41.2-23.6,88.5-37.9,138.9-39.8,2.5-.1,5.1-.2,7.6-.2h4.3c22.5,0,44.5,2.5,65.7,7.1,42,9.3,80.8,27.3,114.3,52,1.6,1.2,3.2,2.4,4.8,3.6,72.1,55.5,118.6,142.6,118.6,240.6h0Z"/>
      <path class="st1" d="M839.5,625.1c.9,1.2,1.7,2.3,2.6,3.5-1.1-1-2.1-2-3.2-3.1-11.4-11.2-21.9-23.4-31.4-36.3,11.7,10.9,22.4,22.9,32,35.8h0Z"/>
      <path class="st1" d="M1355.4,409.6c0,12.5-.8,24.9-2.2,37-1.1,8.7-2.5,17.3-4.3,25.7-2.1,9.9-4.6,19.6-7.7,29.1-26.7,84.1-89,152.2-169.1,186.8,18-38.8,28-82,28-127.5s0-10.9-.4-16.2h0c-.7-13-2.2-25.8-4.5-38.3h0c-5.3-15.5-14.7-29.1-26.9-39.5-15.9-13.6-36.5-21.8-59-21.8s-14.5.9-21.3,2.5c-16.7,8.2-32.6,17.9-47.4,28.9h0c-1.9,2.2-3.6,4.4-5.3,6.7-.4-.6-.7-1.2-1.1-1.8-61.6,48.4-104.1,120.1-114,201.8-9.1-4.4-17.9-9.2-26.5-14.4h0c-9.2-5.6-18.1-11.8-26.6-18.3,1.4-6.8,3.1-13.6,5-20.2,7.8-27.5,19.4-53.4,34.2-77.1h0c2.9-4.7,5.9-9.2,9-13.6h0c26.5-42.1,44.4-90.3,51.3-141.9,2-15.4,3.1-31.1,3.1-47s0-5.6,0-8.3h0c0-6.1-.4-12.2-.9-18.1h0c-3.8-26.8-18.7-49.9-39.9-64.7-15.5-10.9-34.4-17.3-54.8-17.3s-51.9,11.4-69.3,29.8c-1.2.4-2.4.8-3.6,1.2h0c-7.3,9.3-14,19.1-20.1,29.3-12.2,20.2-22.1,41.9-29.4,64.8,3.3-23.3,9.2-45.7,17.5-67,2.3-6,4.9-12,7.6-17.8,26.7-57.6,70.9-105.4,125.8-136.5.6-.3,1.1-.7,1.7-1,43.7-24.5,94.2-38.4,147.8-38.4,167.6,0,303.4,135.8,303.4,303.4v-.3Z"/>
      <path class="st1" d="M969.7,350.3c0,15.9-1,31.6-3.1,47-6.8,51.6-24.7,99.7-51.3,141.9h0c-3.1,4.4-6.1,8.9-9,13.5h0c-14.8,23.8-26.4,49.7-34.2,77.2-1.9,6.7-3.5,13.4-5,20.2-1.1,5.1-2,10.3-2.8,15.5-6.4-13-13.9-25.4-22.2-37.1-.8-1.2-1.7-2.4-2.6-3.5-9.6-12.9-20.3-24.9-32-35.8-14.2-19.3-26.2-40.3-35.6-62.7-15.1-36-23.4-75.5-23.4-117s1-28.8,3-42.7c7.3-22.9,17.2-44.6,29.4-64.8,6.2-10.2,12.9-20,20.1-29.3h0c1.2-.4,2.4-.8,3.6-1.2,17.4-18.3,42-29.8,69.3-29.8s39.3,6.4,54.8,17.3c21.1,14.8,36,37.9,39.9,64.7h0c.5,6,.7,12.1.9,18.2h0v8.4h.2Z"/>
      <path class="st1" d="M1344.2,458.7c0,3.3,0,6.7-.2,10-.4,11.1-1.3,22-2.8,32.8-16.1,114.5-96.2,208.4-202.9,244.7-.7.2-1.3.4-2,.6,1.4-1.7,2.7-3.5,4-5.3,12.3-16.5,22.9-34.3,31.6-53.2,18-38.8,28-82,28-127.5s0-10.9-.4-16.2h0c-.7-13-2.2-25.8-4.5-38.3h0c-5.3-15.5-14.7-29.1-26.9-39.5-15.9-13.6-36.5-21.8-59-21.8s-14.5.9-21.3,2.5c-16.7,8.2-32.6,17.9-47.4,28.9h0c-1.9,2.2-3.6,4.4-5.3,6.7-.4-.6-.7-1.2-1.1-1.8-61.6,48.4-104.1,120.1-114,201.8-1.5,12.1-2.2,24.5-2.2,37s0,5.7,0,8.6h0c1,3,1.9,5.9,2.8,8.9-.8-.3-1.6-.7-2.5-1.1-12-5.3-23.7-11.4-34.8-18.1h0c-7.8-4.8-15.4-9.9-22.8-15.3-20.7-15.3-39.4-33.1-55.6-53.1-24-29.5-42.6-63.7-54.2-101h0c-3.5-11.1-6.3-22.5-8.4-34.1-3.4-18.2-5.2-37-5.2-56.2,0-32,5-62.9,14.2-91.9-2,14-3,28.2-3,42.7,0,41.5,8.3,81,23.4,117,9.4,22.4,21.4,43.4,35.6,62.7,11.7,10.9,22.4,22.9,32,35.8.9,1.2,1.7,2.3,2.6,3.5,8.4,11.7,15.8,24.1,22.2,37.1.8-5.2,1.8-10.4,2.8-15.5,1.4-6.8,3.1-13.6,5-20.2,7.8-27.5,19.4-53.4,34.2-77.1h0c2.9-4.7,5.9-9.2,9-13.6h0c26.5-42.1,44.4-90.3,51.3-141.9,2-15.4,3.1-31.1,3.1-47s0-5.6,0-8.3h0c0-6.1-.4-12.2-.9-18.1h0c-3.8-26.8-18.7-49.9-39.9-64.7-15.5-10.9-34.4-17.3-54.8-17.3s-51.9,11.4-69.3,29.8c-1.2.4-2.4.8-3.6,1.2,32.2-41.5,74.9-74.4,124.2-94.6,8.1-3.3,16.4-6.4,24.9-9,28.6-8.9,59-13.8,90.6-13.8,162,0,294.4,127,302.9,286.9.3,5.4.4,10.9.4,16.4h.1Z"/>
      <path class="st1" d="M874,911.5c-.3,15.4-1.5,30.9-3.4,46.2-.4,2.8-.7,5.6-1.2,8.4-1.2,7.9-2.5,15.8-4.2,23.7-2.8,12.8-6.3,25.3-11,37.4-5.5,14.1-12.5,27.5-21.7,39.6-1.7-9.8-4.1-19.5-7.1-28.9-3.8-11.9-8.5-23.4-14.2-34.5-3.6-6.9-7.5-13.7-11.8-20.2-2-3.1-4.2-6.2-6.4-9.3-25.7-35.1-61.1-61.8-93.6-90.8-39-34.7-74.8-74.5-99.1-121-9.1-17.4-17.5-37.6-23.6-58.8-5.8-20.3-9.4-41.4-9.4-61.6.3,2.6.6,5.1,1.1,7.6-.4-4.4-.8-8.9-1-13.3.3-8,1.2-15.8,2.8-23.4,2.2-10.3,6.1-20.2,12-29,3.3-4.8,7-9.3,11.2-13.4,13.5-13.1,31.2-21.7,49.8-23.9,2.7-.3,5.3-.5,7.9-.6,40.4-1.1,77.8,25.5,106.1,55.2,15.6,16.3,29.7,33.9,42.2,52.5,41.7,61.8,66.5,135,72.9,209.7.5,5.2.8,10.4,1.1,15.6.6,10.9.7,21.8.5,32.7h.1Z"/>
      <path class="st1" d="M906.4,552.7c2.9-4.6,5.9-9.1,9-13.5-2.9,4.6-5.9,9.1-9,13.5Z"/>
      <path class="st1" d="M968.8,323.8c-3.8-26.7-18.7-49.9-39.9-64.7-15.5-10.9-34.4-17.3-54.8-17.3s-51.9,11.4-69.3,29.8c-1.2.4-2.4.8-3.6,1.2h0c-7.3,9.3-14,19.1-20.1,29.3-12.2,20.2-22.1,41.9-29.4,64.8-2,14-3,28.2-3,42.7,0,41.5,8.3,81,23.4,117,9.4,22.4,21.4,43.4,35.6,62.7,11.7,10.9,22.4,22.9,32,35.8-.2.2-.4.3-.6.5-10.7,8.8-22,16.9-33.7,24.4-1.9,1.2-3.8,2.4-5.7,3.6-12.5-18.6-26.6-36.2-42.2-52.5-28.4-29.7-65.7-56.4-106.1-55.2-2.6,0-5.2.3-7.9.6-18.6,2.2-36.4,10.9-49.8,23.9-4.2,4.1-8,8.6-11.2,13.4-5.9,8.8-9.8,18.7-12,29-1.6,7.6-2.5,15.4-2.8,23.4.2,4.5.5,8.9,1,13.3-.5-2.5-.8-5.1-1.1-7.6,0,20.2,3.6,41.3,9.4,61.6-63.5-6.7-121.9-30.2-170.9-65.8-24.8-18-47.1-39.2-66.4-62.9-22.8-27.9-41.4-59.3-54.9-93.3-16.1-40.6-25-84.8-25-131.2-.3-196.2,158.7-355.2,354.8-355.2s225.2,59,289.6,149.5c.6.8,1.1,1.6,1.7,2.4,7,10,13.5,20.4,19.4,31.1,14.8,26.7,26.3,55.4,33.8,85.7,4.8,19.4,8.1,39.4,9.6,59.9h.1Z"/>
    </g>
    <g id="Capa_4">
      <circle class="st0" cx="908.3" cy="876.1" r="876.1"/>
    </g>
  </g>
  <g id="Capa_21" data-name="Capa_2" class="st6">
    <use transform="translate(2231.8 -295.6) scale(3.1)" xlink:href="#image"/>
  </g>
  <g id="Capa_3" class="st6">
    <circle class="st0" cx="3942.4" cy="336.1" r="649.2"/>
    <circle class="st0" cx="3236.8" cy="768.3" r="649.2"/>
    <circle class="st0" cx="3875.1" cy="242.9" r="649.2"/>
    <circle class="st0" cx="3180.5" cy="651.2" r="649.2"/>
    <path class="st0" d="M3801.9,839.6l140.6,285.4,154.1-89.2-173.7,218.3-443.7-866.3s415.5,587.7,463.4,634.7-140.6-182.8-140.6-182.8Z"/>
    <path class="st0" d="M3655.9,97.9"/>
  </g>
  <g id="Capa_41" data-name="Capa_4">
    <g>
      <path class="st5" d="M883.9,1414.9s0,0,0,0c-4.5,15.7-7.4,32.2-13,47.6-9.1,6.9-23.1-26.2-25.9-30.3.3.3.6.6,1,.8-110-151.6-354.1-543.5-388.4-558-.9,14.5,6.1,28.3,12.5,41.1,49.9,101,101,201.4,153.2,301.2,26.1,49.9,52.5,99.6,79.2,149.2,13.4,24.8,26.8,49.5,40.3,74.3,11.2,20.5,32.2,47.1,35.5,69.4-52.9,16.4-112.4-21.5-159.6-40.5-52.7-21.9-102.8-50-149.1-83.4-92.2-66.5-170.3-154.1-222.9-255.1-101.7-194.4-109.9-435-22.5-636.3,1.6-3.7,3.5-7.7,7.1-9.8,3.7-2.1,8.3-1.6,12.5-1,60.1,8.5,117.8,18.5,175.3,38.8,51.3,18.1,118.2,41.1,159.7,77.5,287,182.7,398.5,486,305.3,814.6Z"/>
      <path class="st3" d="M885.1,161.7c176.6-22.2,309.8,124.5,271.9,297.9-16.3,74.7-108.5,241.8-175,279.9-79.8,45.8-180.1-86.7-220.8-144.4-58.4-82.7-98.8-162.5-68.9-266.5,23.6-82,107.8-156.2,192.6-166.9Z"/>
      <path class="st2" d="M1563.7,1139.3c-89.2,122.4-202.8,102-318,169.3l-36.8,43.4c-4.8-13.6,7.3-31,10.8-43.4,12.6-44.4,32.9-126.6,60.7-162.4,25.1-32.3,72.1-25.7,108.9-47,81-46.8,106.6-187.6,73.1-269.3-67.4-164.1-283,26.7-277.3,155.8,2.1,48.8,48.3,96.6,42.4,137.7-4.7,32.8-38.5,107.5-52.1,143.1-28.4,74.5-60.4,159.5-93.6,231.3-12.7,27.5-20.2,59.2-58.1,52.5-29.5-5.2-33.6-35.5-28.2-60.9,7.9-37.9,64.3-121.2,82.1-164.8,66.2-162.9-46-206.7-47.5-351.6-1.7-164.2,165.9-357.5,309.5-421.8,349.3-156.4,358.9,403.6,224.3,588.2Z"/>
    </g>
  </g>
</svg>